<svg width="32" height="32" viewBox="0 0 32 32" fill="none" xmlns="http://www.w3.org/2000/svg">
<path d="M8 24.6222C8.35556 24.6222 8.66667 24.4889 8.93333 24.2222C9.2 23.9556 9.33333 23.6444 9.33333 23.2889C9.33333 22.9333 9.2 22.6222 8.93333 22.3556C8.66667 22.0889 8.35556 21.9556 8 21.9556C7.64444 21.9556 7.33333 22.0889 7.06667 22.3556C6.8 22.6222 6.66667 22.9333 6.66667 23.2889C6.66667 23.6444 6.8 23.9556 7.06667 24.2222C7.33333 24.4889 7.64444 24.6222 8 24.6222ZM8 17.3333C8.35556 17.3333 8.66667 17.2 8.93333 16.9333C9.2 16.6667 9.33333 16.3556 9.33333 16C9.33333 15.6444 9.2 15.3333 8.93333 15.0667C8.66667 14.8 8.35556 14.6667 8 14.6667C7.64444 14.6667 7.33333 14.8 7.06667 15.0667C6.8 15.3333 6.66667 15.6444 6.66667 16C6.66667 16.3556 6.8 16.6667 7.06667 16.9333C7.33333 17.2 7.64444 17.3333 8 17.3333ZM8 10.0444C8.35556 10.0444 8.66667 9.91111 8.93333 9.64444C9.2 9.37778 9.33333 9.06667 9.33333 8.71111C9.33333 8.35556 9.2 8.04444 8.93333 7.77778C8.66667 7.51111 8.35556 7.37778 8 7.37778C7.64444 7.37778 7.33333 7.51111 7.06667 7.77778C6.8 8.04444 6.66667 8.35556 6.66667 8.71111C6.66667 9.06667 6.8 9.37778 7.06667 9.64444C7.33333 9.91111 7.64444 10.0444 8 10.0444ZM13.8667 24.6222H24.7111V21.9556H13.8667V24.6222ZM13.8667 17.3333H24.7111V14.6667H13.8667V17.3333ZM13.8667 10.0444H24.7111V7.37778H13.8667V10.0444ZM2.66667 32C1.95556 32 1.33333 31.7333 0.8 31.2C0.266667 30.6667 0 30.0444 0 29.3333V2.66667C0 1.95556 0.266667 1.33333 0.8 0.8C1.33333 0.266667 1.95556 0 2.66667 0H29.3333C30.0444 0 30.6667 0.266667 31.2 0.8C31.7333 1.33333 32 1.95556 32 2.66667V29.3333C32 30.0444 31.7333 30.6667 31.2 31.2C30.6667 31.7333 30.0444 32 29.3333 32H2.66667ZM2.66667 29.3333H29.3333V2.66667H2.66667V29.3333ZM2.66667 2.66667V29.3333V2.66667Z" fill="white"/>
</svg>
